<mxfile host="app.diagrams.net" modified="2023-05-06T10:27:40.436Z" agent="Mozilla/5.0 (Windows NT 10.0; Win64; x64; rv:102.0) Gecko/20100101 Firefox/102.0" etag="d4XSkc_Londhs7acwCXh" version="21.2.9" type="github">
  <diagram name="Page-1" id="XVAX3JMv7FcWVR3Oqlwc">
    <mxGraphModel dx="2537" dy="934" grid="1" gridSize="10" guides="1" tooltips="1" connect="1" arrows="1" fold="1" page="1" pageScale="1" pageWidth="850" pageHeight="1100" math="0" shadow="0">
      <root>
        <mxCell id="0" />
        <mxCell id="1" parent="0" />
        <mxCell id="p0ROdNJVEXc7yzIytJlv-1" value="" style="rounded=0;whiteSpace=wrap;html=1;strokeWidth=2;strokeColor=#000000;fillColor=default;movable=0;resizable=0;rotatable=0;deletable=0;editable=0;locked=1;connectable=0;" vertex="1" parent="1">
          <mxGeometry x="-20" y="80" width="1260" height="40" as="geometry" />
        </mxCell>
        <mxCell id="p0ROdNJVEXc7yzIytJlv-2" value="" style="rounded=0;whiteSpace=wrap;html=1;strokeWidth=2;strokeColor=#000000;fillColor=default;movable=0;resizable=0;rotatable=0;deletable=0;editable=0;locked=1;connectable=0;" vertex="1" parent="1">
          <mxGeometry x="-20" y="530" width="1260" height="2870" as="geometry" />
        </mxCell>
        <mxCell id="p0ROdNJVEXc7yzIytJlv-3" value="" style="rounded=0;whiteSpace=wrap;html=1;strokeWidth=2;strokeColor=#FF0000;movable=1;resizable=1;rotatable=1;deletable=1;editable=1;locked=0;connectable=1;" vertex="1" parent="1">
          <mxGeometry x="-20" y="120" width="1260" height="410" as="geometry" />
        </mxCell>
        <mxCell id="p0ROdNJVEXc7yzIytJlv-4" value="&lt;font style=&quot;font-size: 24px;&quot;&gt;&lt;u&gt;&lt;font style=&quot;font-size: 24px;&quot;&gt;&lt;b&gt;MINIBOLT&lt;/b&gt;&lt;/font&gt;&lt;/u&gt;&lt;/font&gt;" style="text;html=1;strokeColor=none;fillColor=none;align=center;verticalAlign=middle;whiteSpace=wrap;rounded=0;strokeWidth=2;labelBackgroundColor=none;" vertex="1" parent="1">
          <mxGeometry x="30" y="80" width="60" height="30" as="geometry" />
        </mxCell>
        <mxCell id="p0ROdNJVEXc7yzIytJlv-5" value="&lt;h1 style=&quot;font-size: 16px;&quot;&gt;&lt;font style=&quot;font-size: 19px;&quot;&gt;Testnet&lt;/font&gt;&lt;/h1&gt;&lt;p style=&quot;font-size: 16px;&quot;&gt;&lt;font style=&quot;font-size: 16px;&quot;&gt;Bonus guide&lt;br&gt;&lt;/font&gt;&lt;/p&gt;" style="text;html=1;strokeColor=default;fillColor=none;spacing=5;spacingTop=-20;whiteSpace=wrap;overflow=hidden;rounded=1;strokeWidth=2;" vertex="1" parent="1">
          <mxGeometry x="20" y="180" width="190" height="60" as="geometry" />
        </mxCell>
        <mxCell id="p0ROdNJVEXc7yzIytJlv-6" value="" style="endArrow=classic;html=1;rounded=0;fontSize=20;" edge="1" parent="1">
          <mxGeometry relative="1" as="geometry">
            <mxPoint x="220" y="2549.5" as="sourcePoint" />
            <mxPoint x="370" y="2550" as="targetPoint" />
          </mxGeometry>
        </mxCell>
        <mxCell id="p0ROdNJVEXc7yzIytJlv-7" value="&lt;h1 style=&quot;font-size: 20px;&quot;&gt;Mempool&lt;br&gt;&lt;/h1&gt;&lt;p&gt;Bonus guide (Merge PR opened)&lt;br&gt;&lt;/p&gt;" style="text;html=1;strokeColor=default;fillColor=none;spacing=5;spacingTop=-20;whiteSpace=wrap;overflow=hidden;rounded=1;strokeWidth=2;" vertex="1" parent="1">
          <mxGeometry x="10" y="2520" width="210" height="60" as="geometry" />
        </mxCell>
        <mxCell id="p0ROdNJVEXc7yzIytJlv-8" value="" style="endArrow=classic;html=1;rounded=0;fontSize=20;" edge="1" parent="1">
          <mxGeometry relative="1" as="geometry">
            <mxPoint x="210" y="210" as="sourcePoint" />
            <mxPoint x="360" y="210.5" as="targetPoint" />
          </mxGeometry>
        </mxCell>
        <mxCell id="p0ROdNJVEXc7yzIytJlv-9" value="&lt;div&gt;&lt;font style=&quot;font-size: 14px;&quot;&gt;Branch&lt;/font&gt;&lt;/div&gt;&lt;div style=&quot;font-size: 14px;&quot;&gt;Published&lt;br&gt;&lt;/div&gt;" style="edgeLabel;resizable=0;html=1;align=center;verticalAlign=middle;rounded=1;labelBackgroundColor=none;labelBorderColor=default;strokeColor=default;strokeWidth=2;fontSize=20;fillColor=none;" connectable="0" vertex="1" parent="p0ROdNJVEXc7yzIytJlv-8">
          <mxGeometry relative="1" as="geometry">
            <mxPoint x="-15" as="offset" />
          </mxGeometry>
        </mxCell>
        <mxCell id="p0ROdNJVEXc7yzIytJlv-10" value="&lt;h1 style=&quot;font-size: 20px;&quot;&gt;Nostr clients + relay&lt;br&gt;&lt;/h1&gt;&lt;p&gt;Bonus guide&lt;br&gt;&lt;/p&gt;" style="text;html=1;strokeColor=default;fillColor=none;spacing=5;spacingTop=-20;whiteSpace=wrap;overflow=hidden;rounded=1;strokeWidth=2;" vertex="1" parent="1">
          <mxGeometry x="10" y="560" width="200" height="60" as="geometry" />
        </mxCell>
        <mxCell id="p0ROdNJVEXc7yzIytJlv-11" value="" style="endArrow=classic;html=1;rounded=0;fontSize=20;" edge="1" parent="1">
          <mxGeometry relative="1" as="geometry">
            <mxPoint x="210" y="595" as="sourcePoint" />
            <mxPoint x="350" y="595" as="targetPoint" />
          </mxGeometry>
        </mxCell>
        <mxCell id="p0ROdNJVEXc7yzIytJlv-12" value="&lt;h1 style=&quot;font-size: 20px;&quot;&gt;&lt;font style=&quot;font-size: 18px;&quot;&gt;Common lenguages&lt;/font&gt;&lt;br&gt;&lt;/h1&gt;&lt;p&gt;Merge NPM + Node JS&lt;br&gt;&lt;/p&gt;" style="text;html=1;strokeColor=default;fillColor=none;spacing=5;spacingTop=-20;whiteSpace=wrap;overflow=hidden;rounded=1;strokeWidth=2;" vertex="1" parent="1">
          <mxGeometry x="10" y="630" width="190" height="60" as="geometry" />
        </mxCell>
        <mxCell id="p0ROdNJVEXc7yzIytJlv-13" value="" style="endArrow=classic;html=1;rounded=0;fontSize=20;" edge="1" parent="1">
          <mxGeometry relative="1" as="geometry">
            <mxPoint x="200" y="664.5" as="sourcePoint" />
            <mxPoint x="350" y="665" as="targetPoint" />
          </mxGeometry>
        </mxCell>
        <mxCell id="p0ROdNJVEXc7yzIytJlv-14" value="&lt;h1 style=&quot;font-size: 20px;&quot;&gt;Bonus system tools&lt;/h1&gt;&lt;div&gt;- BPYTOP&lt;/div&gt;&lt;div&gt;- IFTOP&lt;/div&gt;&lt;div&gt;- SPEEDTEST-CLI&lt;/div&gt;&lt;div&gt;- TMUX&lt;/div&gt;&lt;div&gt;- NYX (MOVER DE TOR BRIDGE A ESTA GUIA)&lt;br&gt;&lt;/div&gt;" style="text;html=1;strokeColor=default;fillColor=none;spacing=5;spacingTop=-20;whiteSpace=wrap;overflow=hidden;rounded=1;strokeWidth=2;" vertex="1" parent="1">
          <mxGeometry x="10" y="690" width="190" height="160" as="geometry" />
        </mxCell>
        <mxCell id="p0ROdNJVEXc7yzIytJlv-15" value="" style="endArrow=classic;html=1;rounded=0;fontSize=20;" edge="1" parent="1">
          <mxGeometry relative="1" as="geometry">
            <mxPoint x="200" y="764.5" as="sourcePoint" />
            <mxPoint x="350" y="765" as="targetPoint" />
          </mxGeometry>
        </mxCell>
        <mxCell id="p0ROdNJVEXc7yzIytJlv-16" value="&lt;h1 style=&quot;font-size: 20px;&quot;&gt;Mobile wallet onchain bonus&lt;br&gt;&lt;/h1&gt;&lt;div&gt;- Electrum wallet movil&lt;/div&gt;&lt;div&gt;- Simple bitcoin wallet / open bitcoin wallet&lt;/div&gt;&lt;div&gt;(Own node Tor)&lt;br&gt;&lt;/div&gt;" style="text;html=1;strokeColor=default;fillColor=none;spacing=5;spacingTop=-20;whiteSpace=wrap;overflow=hidden;rounded=1;strokeWidth=2;" vertex="1" parent="1">
          <mxGeometry x="10" y="850" width="200" height="130" as="geometry" />
        </mxCell>
        <mxCell id="p0ROdNJVEXc7yzIytJlv-17" value="" style="endArrow=classic;html=1;rounded=0;fontSize=20;" edge="1" parent="1">
          <mxGeometry relative="1" as="geometry">
            <mxPoint x="210" y="875" as="sourcePoint" />
            <mxPoint x="350" y="875" as="targetPoint" />
          </mxGeometry>
        </mxCell>
        <mxCell id="p0ROdNJVEXc7yzIytJlv-18" value="&lt;h1 style=&quot;font-size: 20px;&quot;&gt;Update section&lt;br&gt;&lt;/h1&gt;&lt;div&gt;- Incluir orden de apagado (parada segura) &lt;br&gt;&lt;/div&gt;" style="text;html=1;strokeColor=default;fillColor=none;spacing=5;spacingTop=-20;whiteSpace=wrap;overflow=hidden;rounded=1;strokeWidth=2;" vertex="1" parent="1">
          <mxGeometry x="10" y="990" width="190" height="70" as="geometry" />
        </mxCell>
        <mxCell id="p0ROdNJVEXc7yzIytJlv-19" value="" style="endArrow=classic;html=1;rounded=0;fontSize=20;" edge="1" parent="1">
          <mxGeometry relative="1" as="geometry">
            <mxPoint x="200" y="1014.5" as="sourcePoint" />
            <mxPoint x="350" y="1015" as="targetPoint" />
          </mxGeometry>
        </mxCell>
        <mxCell id="p0ROdNJVEXc7yzIytJlv-20" value="&lt;h1 style=&quot;font-size: 16px;&quot;&gt;&lt;font style=&quot;font-size: 16px;&quot;&gt;Expose to the outside&lt;/font&gt; &lt;font style=&quot;font-size: 16px;&quot;&gt;(insecure)&lt;/font&gt;&lt;/h1&gt;&lt;div&gt;- Include custom SSH&lt;/div&gt;&lt;div&gt;- Include Fail2Ban / SSH guard&lt;br&gt;&lt;/div&gt;" style="text;html=1;strokeColor=default;fillColor=none;spacing=5;spacingTop=-20;whiteSpace=wrap;overflow=hidden;rounded=1;strokeWidth=2;" vertex="1" parent="1">
          <mxGeometry x="10" y="1070" width="190" height="90" as="geometry" />
        </mxCell>
        <mxCell id="p0ROdNJVEXc7yzIytJlv-21" value="" style="endArrow=classic;html=1;rounded=0;fontSize=20;" edge="1" parent="1">
          <mxGeometry relative="1" as="geometry">
            <mxPoint x="200" y="1094.5" as="sourcePoint" />
            <mxPoint x="350" y="1095" as="targetPoint" />
          </mxGeometry>
        </mxCell>
        <mxCell id="p0ROdNJVEXc7yzIytJlv-22" value="&lt;h1 style=&quot;font-size: 16px;&quot;&gt;Backup/recover section&lt;br&gt;&lt;/h1&gt;&lt;div&gt;- Blockchan mainnet + testnet (indexes + chainstate + blocks)&lt;/div&gt;&lt;div&gt;- Fulcrum + Electrs&lt;br&gt;&lt;hr&gt;- Local network / remote network / external drive&lt;/div&gt;&lt;div&gt;&lt;hr&gt;Include tmux&lt;br&gt;&lt;/div&gt;" style="text;html=1;strokeColor=default;fillColor=none;spacing=5;spacingTop=-20;whiteSpace=wrap;overflow=hidden;rounded=0;strokeWidth=2;" vertex="1" parent="1">
          <mxGeometry x="10" y="1170" width="190" height="160" as="geometry" />
        </mxCell>
        <mxCell id="p0ROdNJVEXc7yzIytJlv-23" value="" style="endArrow=classic;html=1;rounded=0;fontSize=20;" edge="1" parent="1">
          <mxGeometry relative="1" as="geometry">
            <mxPoint x="200" y="1194.5" as="sourcePoint" />
            <mxPoint x="350" y="1195" as="targetPoint" />
          </mxGeometry>
        </mxCell>
        <mxCell id="p0ROdNJVEXc7yzIytJlv-24" value="&lt;h1 style=&quot;font-size: 16px;&quot;&gt;Configure options&lt;br&gt;&lt;/h1&gt;&lt;div&gt;- Disable unused networks + set static IP &amp;amp; DNS (no router conf necessary)&lt;/div&gt;&lt;div&gt;&lt;br&gt;&lt;/div&gt;&lt;div&gt;&lt;span style=&quot;white-space: pre;&quot;&gt;	&lt;/span&gt;- Conf static IP &amp;amp; DNS (warning)&lt;br&gt;&lt;/div&gt;&lt;div&gt;&lt;span style=&quot;white-space: pre;&quot;&gt;	&lt;/span&gt;- Disable Wifi&lt;/div&gt;&lt;div&gt;&lt;span style=&quot;white-space: pre;&quot;&gt;	&lt;/span&gt;- Disable Bluetooth &lt;br&gt;&lt;/div&gt;" style="text;html=1;strokeColor=default;fillColor=none;spacing=5;spacingTop=-20;whiteSpace=wrap;overflow=hidden;rounded=0;strokeWidth=2;" vertex="1" parent="1">
          <mxGeometry x="15" y="250" width="190" height="150" as="geometry" />
        </mxCell>
        <mxCell id="p0ROdNJVEXc7yzIytJlv-25" value="" style="endArrow=classic;html=1;rounded=0;fontSize=20;" edge="1" parent="1">
          <mxGeometry relative="1" as="geometry">
            <mxPoint x="205" y="320" as="sourcePoint" />
            <mxPoint x="355" y="320.5" as="targetPoint" />
          </mxGeometry>
        </mxCell>
        <mxCell id="p0ROdNJVEXc7yzIytJlv-26" value="&lt;h1 style=&quot;font-size: 16px;&quot;&gt;OS image + SSH preinstalled &lt;br&gt;&lt;/h1&gt;&lt;div&gt;- Search resize through command line &lt;br&gt;&lt;/div&gt;" style="text;html=1;strokeColor=default;fillColor=none;spacing=5;spacingTop=-20;whiteSpace=wrap;overflow=hidden;rounded=0;strokeWidth=2;" vertex="1" parent="1">
          <mxGeometry x="10" y="1500" width="190" height="80" as="geometry" />
        </mxCell>
        <mxCell id="p0ROdNJVEXc7yzIytJlv-27" value="" style="endArrow=classic;html=1;rounded=0;fontSize=20;" edge="1" parent="1">
          <mxGeometry relative="1" as="geometry">
            <mxPoint x="200" y="1514.5" as="sourcePoint" />
            <mxPoint x="350" y="1515" as="targetPoint" />
          </mxGeometry>
        </mxCell>
        <mxCell id="p0ROdNJVEXc7yzIytJlv-28" value="&lt;h1 style=&quot;font-size: 16px;&quot;&gt;The Eye of Satoshi bonus guide&lt;br&gt;&lt;/h1&gt;&lt;div&gt;- Abrir issue .cookie file&lt;/div&gt;&lt;div&gt;- Test without + CLN + pruned/full&lt;br&gt;&lt;/div&gt;" style="text;html=1;strokeColor=default;fillColor=none;spacing=5;spacingTop=-20;whiteSpace=wrap;overflow=hidden;rounded=0;strokeWidth=2;" vertex="1" parent="1">
          <mxGeometry x="10" y="1580" width="190" height="80" as="geometry" />
        </mxCell>
        <mxCell id="p0ROdNJVEXc7yzIytJlv-29" value="" style="endArrow=classic;html=1;rounded=0;fontSize=20;" edge="1" parent="1">
          <mxGeometry relative="1" as="geometry">
            <mxPoint x="200" y="1604.5" as="sourcePoint" />
            <mxPoint x="350" y="1605" as="targetPoint" />
          </mxGeometry>
        </mxCell>
        <mxCell id="p0ROdNJVEXc7yzIytJlv-30" value="&lt;h1 style=&quot;font-size: 16px;&quot;&gt;SCB onchain fund backup/recovery procedure/guide of LND &lt;br&gt;&lt;/h1&gt;&lt;div&gt;- A bonus guide that explains clearly how a user with a bricked node can recover the LN funds onchain using the SCB recovery procedure. Tailored to MiniBolt setup&lt;/div&gt;&lt;div&gt;&lt;span style=&quot;white-space: pre;&quot;&gt;	&lt;/span&gt;Include:&lt;/div&gt;&lt;div&gt;&lt;ul&gt;&lt;li&gt;Chantools (BIP32 privkey) + Sparrow import&lt;br&gt;&lt;/li&gt;&lt;li&gt;Thunderhub / Ambos (Abrir issue)&lt;br&gt;&lt;/li&gt;&lt;/ul&gt;&lt;/div&gt;" style="text;html=1;strokeColor=default;fillColor=none;spacing=5;spacingTop=-20;whiteSpace=wrap;overflow=hidden;rounded=0;strokeWidth=2;" vertex="1" parent="1">
          <mxGeometry x="10" y="1670" width="310" height="160" as="geometry" />
        </mxCell>
        <mxCell id="p0ROdNJVEXc7yzIytJlv-31" value="" style="endArrow=classic;html=1;rounded=0;fontSize=20;" edge="1" parent="1">
          <mxGeometry relative="1" as="geometry">
            <mxPoint x="320" y="1749.5" as="sourcePoint" />
            <mxPoint x="470" y="1749.5" as="targetPoint" />
          </mxGeometry>
        </mxCell>
        <mxCell id="p0ROdNJVEXc7yzIytJlv-32" value="&lt;h1 style=&quot;font-size: 16px;&quot;&gt;Bonus guide de nodo podado&lt;br&gt;&lt;/h1&gt;" style="text;html=1;strokeColor=default;fillColor=none;spacing=5;spacingTop=-20;whiteSpace=wrap;overflow=hidden;rounded=0;strokeWidth=2;" vertex="1" parent="1">
          <mxGeometry x="10" y="1840" width="190" height="50" as="geometry" />
        </mxCell>
        <mxCell id="p0ROdNJVEXc7yzIytJlv-33" value="" style="endArrow=classic;html=1;rounded=0;fontSize=20;" edge="1" parent="1">
          <mxGeometry relative="1" as="geometry">
            <mxPoint x="200" y="1870" as="sourcePoint" />
            <mxPoint x="350" y="1870.5" as="targetPoint" />
          </mxGeometry>
        </mxCell>
        <mxCell id="p0ROdNJVEXc7yzIytJlv-34" value="Priority" style="text;html=1;strokeColor=none;fillColor=none;align=center;verticalAlign=middle;whiteSpace=wrap;rounded=0;fontStyle=5;fontSize=19;" vertex="1" parent="1">
          <mxGeometry x="10" y="120" width="120" height="40" as="geometry" />
        </mxCell>
        <mxCell id="p0ROdNJVEXc7yzIytJlv-35" value="&lt;div&gt;&lt;br&gt;&lt;/div&gt;&lt;div&gt;ESPERAR UN TIEMPO HASTA&lt;/div&gt;&lt;div&gt;QUE SE DESARROLLE LA TECH&lt;br&gt;&lt;/div&gt;" style="text;html=1;strokeColor=default;fillColor=none;spacing=5;spacingTop=-20;whiteSpace=wrap;overflow=hidden;rounded=1;strokeWidth=2;align=center;" vertex="1" parent="1">
          <mxGeometry x="350" y="570" width="160" height="60" as="geometry" />
        </mxCell>
        <mxCell id="p0ROdNJVEXc7yzIytJlv-36" value="&lt;h1 style=&quot;font-size: 16px;&quot;&gt;Thunderhub improvement&lt;/h1&gt;&lt;div&gt;How to post messages on Amboss Billboard + review of backup with Amboss method&lt;br&gt;&lt;/div&gt;&lt;div&gt;&lt;br&gt;&lt;/div&gt;&lt;div&gt;&lt;br&gt;&lt;/div&gt;" style="text;html=1;strokeColor=default;fillColor=none;spacing=5;spacingTop=-20;whiteSpace=wrap;overflow=hidden;rounded=0;strokeWidth=2;" vertex="1" parent="1">
          <mxGeometry x="10" y="1900" width="190" height="100" as="geometry" />
        </mxCell>
        <mxCell id="p0ROdNJVEXc7yzIytJlv-37" value="" style="endArrow=classic;html=1;rounded=0;fontSize=20;" edge="1" parent="1">
          <mxGeometry relative="1" as="geometry">
            <mxPoint x="200" y="1930" as="sourcePoint" />
            <mxPoint x="350" y="1930.5" as="targetPoint" />
          </mxGeometry>
        </mxCell>
        <mxCell id="p0ROdNJVEXc7yzIytJlv-38" value="&lt;h1 style=&quot;font-size: 16px;&quot;&gt;General guide improvements&lt;br&gt;&lt;/h1&gt;&lt;div&gt;- Add chapters 1,2, 2.2...&lt;br&gt;&lt;/div&gt;&lt;div&gt;- Delete &quot;$&quot; symbol&lt;/div&gt;&lt;div&gt;- Add schema node network&lt;br&gt;&lt;/div&gt;&lt;div&gt;&lt;br&gt;&lt;/div&gt;" style="text;html=1;strokeColor=default;fillColor=none;spacing=5;spacingTop=-20;whiteSpace=wrap;overflow=hidden;rounded=0;strokeWidth=2;" vertex="1" parent="1">
          <mxGeometry x="10" y="2010" width="190" height="100" as="geometry" />
        </mxCell>
        <mxCell id="p0ROdNJVEXc7yzIytJlv-39" value="" style="endArrow=classic;html=1;rounded=0;fontSize=20;" edge="1" parent="1">
          <mxGeometry relative="1" as="geometry">
            <mxPoint x="200" y="2040" as="sourcePoint" />
            <mxPoint x="350" y="2040.5" as="targetPoint" />
          </mxGeometry>
        </mxCell>
        <mxCell id="p0ROdNJVEXc7yzIytJlv-40" value="&lt;h1 style=&quot;font-size: 20px;&quot;&gt;Debian suggestion&lt;br&gt;&lt;/h1&gt;&lt;p&gt;Installation section (core)&lt;/p&gt;&lt;p&gt;&lt;/p&gt;" style="text;html=1;strokeColor=default;fillColor=none;spacing=5;spacingTop=-20;whiteSpace=wrap;overflow=hidden;rounded=1;strokeWidth=2;" vertex="1" parent="1">
          <mxGeometry x="10" y="2120" width="190" height="60" as="geometry" />
        </mxCell>
        <mxCell id="p0ROdNJVEXc7yzIytJlv-41" value="" style="endArrow=classic;html=1;rounded=0;fontSize=20;" edge="1" parent="1">
          <mxGeometry relative="1" as="geometry">
            <mxPoint x="200" y="2150" as="sourcePoint" />
            <mxPoint x="350" y="2150.5" as="targetPoint" />
          </mxGeometry>
        </mxCell>
        <mxCell id="p0ROdNJVEXc7yzIytJlv-42" value="&lt;div&gt;&lt;br&gt;&lt;/div&gt;&lt;div&gt;&lt;b&gt;Tareas:&lt;/b&gt;&lt;br&gt;&lt;/div&gt;&lt;div&gt;- Revisar servicios&lt;/div&gt;&lt;div&gt;- 2 opciones (only testnet o ambos)&lt;br&gt;&lt;/div&gt;" style="text;html=1;strokeColor=default;fillColor=none;spacing=5;spacingTop=-20;whiteSpace=wrap;overflow=hidden;rounded=1;strokeWidth=2;align=center;" vertex="1" parent="1">
          <mxGeometry x="360" y="150" width="160" height="90" as="geometry" />
        </mxCell>
        <mxCell id="p0ROdNJVEXc7yzIytJlv-43" style="edgeStyle=orthogonalEdgeStyle;rounded=0;orthogonalLoop=1;jettySize=auto;html=1;exitX=0.5;exitY=1;exitDx=0;exitDy=0;" edge="1" parent="1">
          <mxGeometry relative="1" as="geometry">
            <mxPoint x="430" y="2510" as="sourcePoint" />
            <mxPoint x="430" y="2510" as="targetPoint" />
          </mxGeometry>
        </mxCell>
        <mxCell id="p0ROdNJVEXc7yzIytJlv-44" value="&lt;h1 style=&quot;font-size: 20px;&quot;&gt;Nginx https redirect&lt;br&gt;&lt;/h1&gt;&lt;div&gt;&lt;p&gt;- Complete test in:&lt;/p&gt;&lt;p&gt;&lt;span style=&quot;white-space: pre;&quot;&gt;	&lt;/span&gt;- Lnbits + lndg + homer &lt;br&gt;&lt;/p&gt;&lt;/div&gt;" style="text;html=1;strokeColor=default;fillColor=none;spacing=5;spacingTop=-20;whiteSpace=wrap;overflow=hidden;rounded=1;strokeWidth=2;" vertex="1" parent="1">
          <mxGeometry x="10" y="2190" width="220" height="90" as="geometry" />
        </mxCell>
        <mxCell id="p0ROdNJVEXc7yzIytJlv-45" value="" style="endArrow=classic;html=1;rounded=0;fontSize=20;" edge="1" parent="1">
          <mxGeometry relative="1" as="geometry">
            <mxPoint x="230" y="2220" as="sourcePoint" />
            <mxPoint x="380" y="2220.5" as="targetPoint" />
          </mxGeometry>
        </mxCell>
        <mxCell id="p0ROdNJVEXc7yzIytJlv-46" value="&lt;div&gt;&lt;font style=&quot;font-size: 14px;&quot;&gt;Branch&lt;/font&gt;&lt;/div&gt;&lt;div style=&quot;font-size: 14px;&quot;&gt;Published&lt;br&gt;&lt;/div&gt;" style="edgeLabel;resizable=0;html=1;align=center;verticalAlign=middle;rounded=1;labelBackgroundColor=none;labelBorderColor=default;strokeColor=default;strokeWidth=2;fontSize=20;fillColor=none;" connectable="0" vertex="1" parent="1">
          <mxGeometry x="280" y="2220" as="geometry" />
        </mxCell>
        <mxCell id="p0ROdNJVEXc7yzIytJlv-47" value="&lt;div style=&quot;font-size: 18px;&quot;&gt;&lt;font style=&quot;font-size: 18px;&quot;&gt;PR &lt;br&gt;&lt;/font&gt;&lt;/div&gt;&lt;div style=&quot;font-size: 18px;&quot;&gt;&lt;font style=&quot;font-size: 18px;&quot;&gt;published&lt;/font&gt;&lt;/div&gt;" style="edgeLabel;resizable=0;html=1;align=center;verticalAlign=middle;rounded=1;labelBackgroundColor=none;labelBorderColor=default;strokeColor=default;strokeWidth=2;fontSize=20;fillColor=none;" connectable="0" vertex="1" parent="1">
          <mxGeometry x="389.9995833368057" y="2199.9999986111225" as="geometry">
            <mxPoint x="26" y="22" as="offset" />
          </mxGeometry>
        </mxCell>
        <mxCell id="p0ROdNJVEXc7yzIytJlv-48" value="&lt;div style=&quot;font-size: 18px;&quot;&gt;&lt;font style=&quot;font-size: 18px;&quot;&gt;Issue related&lt;br&gt;&lt;/font&gt;&lt;/div&gt;" style="edgeLabel;resizable=0;html=1;align=center;verticalAlign=middle;rounded=1;labelBackgroundColor=none;labelBorderColor=default;strokeColor=default;strokeWidth=2;fontSize=20;fillColor=none;" connectable="0" vertex="1" parent="1">
          <mxGeometry x="399.9995833368057" y="2519.9999986111225" as="geometry">
            <mxPoint x="26" y="22" as="offset" />
          </mxGeometry>
        </mxCell>
        <mxCell id="p0ROdNJVEXc7yzIytJlv-49" value="&lt;h1 style=&quot;font-size: 20px;&quot;&gt;Revisar servicios&lt;/h1&gt;&lt;div&gt;Parametros y coordinacion general&lt;br&gt;&lt;/div&gt;&lt;p&gt;&lt;/p&gt;" style="text;html=1;strokeColor=default;fillColor=none;spacing=5;spacingTop=-20;whiteSpace=wrap;overflow=hidden;rounded=1;strokeWidth=2;" vertex="1" parent="1">
          <mxGeometry x="10" y="2310" width="190" height="70" as="geometry" />
        </mxCell>
        <mxCell id="p0ROdNJVEXc7yzIytJlv-50" value="" style="endArrow=classic;html=1;rounded=0;fontSize=20;" edge="1" parent="1">
          <mxGeometry relative="1" as="geometry">
            <mxPoint x="200" y="2350" as="sourcePoint" />
            <mxPoint x="350" y="2350.5" as="targetPoint" />
          </mxGeometry>
        </mxCell>
        <mxCell id="p0ROdNJVEXc7yzIytJlv-51" value="&lt;h1 style=&quot;font-size: 20px;&quot;&gt;Modificar SWAP&lt;br&gt;&lt;/h1&gt;&lt;div&gt;&lt;br&gt;&lt;/div&gt;&lt;p&gt;&lt;/p&gt;" style="text;html=1;strokeColor=default;fillColor=none;spacing=5;spacingTop=-20;whiteSpace=wrap;overflow=hidden;rounded=1;strokeWidth=2;" vertex="1" parent="1">
          <mxGeometry x="10" y="2390" width="190" height="40" as="geometry" />
        </mxCell>
        <mxCell id="p0ROdNJVEXc7yzIytJlv-52" value="" style="endArrow=classic;html=1;rounded=0;fontSize=20;" edge="1" parent="1">
          <mxGeometry relative="1" as="geometry">
            <mxPoint x="200" y="2399.5" as="sourcePoint" />
            <mxPoint x="350" y="2400" as="targetPoint" />
          </mxGeometry>
        </mxCell>
        <mxCell id="p0ROdNJVEXc7yzIytJlv-53" value="&lt;h1 style=&quot;font-size: 17px;&quot;&gt;Tailscale bonus guide&lt;br&gt;&lt;/h1&gt;&lt;div&gt;&lt;br&gt;&lt;/div&gt;&lt;p&gt;&lt;/p&gt;" style="text;html=1;strokeColor=default;fillColor=none;spacing=5;spacingTop=-20;whiteSpace=wrap;overflow=hidden;rounded=1;strokeWidth=2;" vertex="1" parent="1">
          <mxGeometry x="10" y="2440" width="190" height="30" as="geometry" />
        </mxCell>
        <mxCell id="p0ROdNJVEXc7yzIytJlv-54" value="" style="endArrow=classic;html=1;rounded=0;fontSize=20;" edge="1" parent="1">
          <mxGeometry relative="1" as="geometry">
            <mxPoint x="200" y="2449.5" as="sourcePoint" />
            <mxPoint x="350" y="2450" as="targetPoint" />
          </mxGeometry>
        </mxCell>
        <mxCell id="p0ROdNJVEXc7yzIytJlv-55" value="&lt;div&gt;&lt;font style=&quot;font-size: 14px;&quot;&gt;Branch&lt;/font&gt;&lt;/div&gt;&lt;div style=&quot;font-size: 14px;&quot;&gt;Published&lt;br&gt;&lt;/div&gt;" style="edgeLabel;resizable=0;html=1;align=center;verticalAlign=middle;rounded=1;labelBackgroundColor=none;labelBorderColor=default;strokeColor=default;strokeWidth=2;fontSize=20;fillColor=none;" connectable="0" vertex="1" parent="1">
          <mxGeometry x="259.9995833368057" y="659.9999986111227" as="geometry" />
        </mxCell>
        <mxCell id="p0ROdNJVEXc7yzIytJlv-56" value="&lt;div style=&quot;font-size: 18px;&quot;&gt;&lt;font style=&quot;font-size: 18px;&quot;&gt;PR &lt;br&gt;&lt;/font&gt;&lt;/div&gt;&lt;div style=&quot;font-size: 18px;&quot;&gt;&lt;font style=&quot;font-size: 18px;&quot;&gt;published&lt;/font&gt;&lt;/div&gt;" style="edgeLabel;resizable=0;html=1;align=center;verticalAlign=middle;rounded=1;labelBackgroundColor=none;labelBorderColor=default;strokeColor=default;strokeWidth=2;fontSize=20;fillColor=none;" connectable="0" vertex="1" parent="1">
          <mxGeometry x="359.9995833368057" y="639.9999986111225" as="geometry">
            <mxPoint x="26" y="22" as="offset" />
          </mxGeometry>
        </mxCell>
        <mxCell id="p0ROdNJVEXc7yzIytJlv-57" value="&lt;h1 style=&quot;font-size: 17px;&quot;&gt;BTCpay bonus guide&lt;br&gt;&lt;/h1&gt;&lt;div&gt;&lt;br&gt;&lt;/div&gt;&lt;p&gt;&lt;/p&gt;" style="text;html=1;strokeColor=default;fillColor=none;spacing=5;spacingTop=-20;whiteSpace=wrap;overflow=hidden;rounded=1;strokeWidth=2;" vertex="1" parent="1">
          <mxGeometry x="10" y="2480" width="190" height="30" as="geometry" />
        </mxCell>
        <mxCell id="p0ROdNJVEXc7yzIytJlv-58" value="" style="endArrow=classic;html=1;rounded=0;fontSize=20;" edge="1" parent="1">
          <mxGeometry relative="1" as="geometry">
            <mxPoint x="200" y="2494.5" as="sourcePoint" />
            <mxPoint x="350" y="2495" as="targetPoint" />
          </mxGeometry>
        </mxCell>
      </root>
    </mxGraphModel>
  </diagram>
</mxfile>
